<svg xmlns="http://www.w3.org/2000/svg" width="35" height="35" viewBox="0 0 35 35" fill="none">
  <path d="M20.4168 13.1248C20.1283 13.1248 19.8464 13.2104 19.6065 13.3706C19.3667 13.5309 19.1798 13.7586 19.0694 14.0251C18.9591 14.2916 18.9302 14.5848 18.9864 14.8677C19.0427 15.1506 19.1816 15.4104 19.3856 15.6144C19.5895 15.8183 19.8494 15.9572 20.1322 16.0135C20.4151 16.0698 20.7084 16.0409 20.9748 15.9305C21.2413 15.8201 21.4691 15.6332 21.6293 15.3934C21.7896 15.1536 21.8751 14.8716 21.8751 14.5832C21.8751 14.1964 21.7214 13.8255 21.448 13.552C21.1745 13.2785 20.8035 13.1248 20.4168 13.1248ZM20.4168 8.74984C20.1283 8.74984 19.8464 8.83537 19.6065 8.99561C19.3667 9.15585 19.1798 9.38362 19.0694 9.65009C18.9591 9.91657 18.9302 10.2098 18.9864 10.4927C19.0427 10.7756 19.1816 11.0354 19.3856 11.2394C19.5895 11.4433 19.8494 11.5822 20.1322 11.6385C20.4151 11.6948 20.7084 11.6659 20.9748 11.5555C21.2413 11.4451 21.4691 11.2582 21.6293 11.0184C21.7896 10.7786 21.8751 10.4966 21.8751 10.2082C21.8751 9.8214 21.7214 9.45046 21.448 9.17697C21.1745 8.90348 20.8035 8.74984 20.4168 8.74984ZM17.5001 2.9165C14.6158 2.9165 11.7962 3.7718 9.39802 5.37424C6.9998 6.97668 5.13062 9.25428 4.02684 11.919C2.92307 14.5838 2.63427 17.516 3.19697 20.3449C3.75967 23.1738 5.1486 25.7723 7.18811 27.8118C9.22763 29.8513 11.8261 31.2403 14.655 31.803C17.4839 32.3657 20.4161 32.0769 23.0809 30.9731C25.7456 29.8693 28.0232 28.0001 29.6257 25.6019C31.2281 23.2037 32.0834 20.3841 32.0834 17.4998C32.0834 15.5847 31.7062 13.6884 30.9733 11.919C30.2404 10.1497 29.1662 8.54205 27.8121 7.18786C26.4579 5.83368 24.8502 4.75948 23.0809 4.02659C21.3116 3.29371 19.4152 2.9165 17.5001 2.9165ZM17.5001 29.1665C15.1926 29.1665 12.937 28.4823 11.0184 27.2003C9.09986 25.9184 7.60452 24.0963 6.72149 21.9645C5.83847 19.8327 5.60743 17.4869 6.05759 15.2238C6.50775 12.9607 7.6189 10.8819 9.25051 9.25026C10.8821 7.61865 12.9609 6.5075 15.224 6.05734C17.4871 5.60718 19.8329 5.83822 21.9647 6.72124C24.0965 7.60427 25.9186 9.09961 27.2006 11.0182C28.4825 12.9368 29.1668 15.1924 29.1668 17.4998C29.1668 20.594 27.9376 23.5615 25.7497 25.7494C23.5617 27.9373 20.5943 29.1665 17.5001 29.1665ZM24.7918 11.6665C24.5033 11.6665 24.2214 11.752 23.9815 11.9123C23.7417 12.0725 23.5548 12.3003 23.4444 12.5668C23.3341 12.8332 23.3052 13.1265 23.3614 13.4093C23.4177 13.6922 23.5566 13.9521 23.7606 14.156C23.9645 14.36 24.2244 14.4989 24.5072 14.5551C24.7901 14.6114 25.0834 14.5825 25.3498 14.4722C25.6163 14.3618 25.8441 14.1749 26.0043 13.935C26.1646 13.6952 26.2501 13.4133 26.2501 13.1248C26.2501 12.7381 26.0964 12.3671 25.823 12.0936C25.5495 11.8201 25.1785 11.6665 24.7918 11.6665Z" fill="white"/>
</svg>