<svg xmlns="http://www.w3.org/2000/svg" width="35" height="35" viewBox="0 0 35 35" fill="none">
  <g clip-path="url(#clip0_4001_653)">
    <path d="M10.6128 20.0125L14.9878 24.3875L13.4497 25.9256L9.07471 21.5506L10.6128 20.0125ZM20.7812 0.000341797C22.0915 0.000341797 23.3504 0.165544 24.5581 0.495947C25.7658 0.826351 26.8994 1.30487 27.959 1.93149C29.0186 2.55812 29.9756 3.29868 30.8301 4.15317C31.6846 5.00767 32.4251 5.9647 33.0518 7.02427C33.6784 8.08384 34.1569 9.21746 34.4873 10.4251C34.8177 11.6328 34.9886 12.8975 35 14.2191C35 15.8825 34.7266 17.4719 34.1797 18.9872C33.6328 20.5025 32.8695 21.8753 31.8896 23.1058C30.9098 24.3363 29.7363 25.3845 28.3691 26.2503C27.002 27.1162 25.5151 27.7315 23.9087 28.096C24.0112 28.9391 24.0625 29.7822 24.0625 30.6253C24.0625 31.2292 23.9486 31.7931 23.7207 32.3172C23.4928 32.8413 23.1795 33.3084 22.7808 33.7186C22.382 34.1288 21.9206 34.4421 21.3965 34.6585C20.8724 34.875 20.3027 34.9889 19.6875 35.0003C17.876 35.0003 16.1328 34.7668 14.458 34.2997C12.7832 33.8325 11.2109 33.1717 9.74121 32.3172C8.27148 31.4627 6.94417 30.4374 5.75928 29.2411C4.57438 28.0448 3.54899 26.7175 2.68311 25.2591C1.81722 23.8008 1.15641 22.2342 0.700684 20.5594C0.244954 18.8846 0.0113932 17.1358 0 15.3128C0 14.709 0.113932 14.145 0.341797 13.6209C0.569661 13.0969 0.882975 12.6297 1.28174 12.2196C1.6805 11.8094 2.14193 11.4961 2.66602 11.2796C3.1901 11.0632 3.75977 10.9492 4.375 10.9378C5.2181 10.9378 6.0612 10.9891 6.9043 11.0917C7.26888 9.47381 7.88411 7.987 8.75 6.6312C9.61589 5.27541 10.6641 4.1076 11.8945 3.12778C13.125 2.14797 14.4979 1.37892 16.0132 0.820654C17.5285 0.262386 19.1178 -0.0110514 20.7812 0.000341797ZM26.8311 9.72446C27.3779 10.1232 27.9761 10.4251 28.6255 10.6302C29.2749 10.8353 29.9414 10.9378 30.625 10.9378C31.1947 10.9378 31.7529 10.8695 32.2998 10.7328C32.0719 9.95802 31.7643 9.21746 31.377 8.51108C30.9896 7.8047 30.5396 7.1439 30.0269 6.52866L26.8311 9.72446ZM28.4717 4.97349C27.8564 4.46079 27.1956 4.01076 26.4893 3.62339C25.7829 3.23602 25.0423 2.9284 24.2676 2.70054C24.1309 3.24741 24.0625 3.80568 24.0625 4.37534C24.0625 5.05894 24.165 5.72544 24.3701 6.37485C24.5752 7.02427 24.8771 7.62241 25.2759 8.16929L28.4717 4.97349ZM22.1313 2.27329C21.9035 2.23911 21.6813 2.21633 21.4648 2.20493C21.2484 2.19354 21.0205 2.18784 20.7812 2.18784C19.3685 2.18784 18.007 2.4271 16.6968 2.90562C15.3866 3.38413 14.1846 4.07912 13.0908 4.99058L20.7812 12.681L23.7207 9.74155C23.1169 8.97821 22.6611 8.1408 22.3535 7.22935C22.0459 6.31789 21.8864 5.36655 21.875 4.37534C21.875 3.65757 21.9604 2.95688 22.1313 2.27329ZM11.5356 6.52866C10.9318 7.24644 10.4191 8.02118 9.99756 8.85288C9.57601 9.68459 9.2627 10.5676 9.05762 11.5018C10.6185 11.8664 12.1167 12.4304 13.5522 13.1937C14.9878 13.957 16.3037 14.8742 17.5 15.9452L19.2432 14.2191L11.5356 6.52866ZM19.6875 32.8128C19.9951 32.8128 20.2799 32.7559 20.542 32.6419C20.804 32.528 21.0319 32.3742 21.2256 32.1805C21.4193 31.9868 21.5788 31.7533 21.7041 31.4798C21.8294 31.2064 21.8864 30.9216 21.875 30.6253C21.875 29.0189 21.6699 27.4694 21.2598 25.9769C20.8496 24.4844 20.2572 23.0944 19.4824 21.807C18.7077 20.5195 17.7962 19.3403 16.748 18.2694C15.6999 17.1984 14.5207 16.2813 13.2104 15.5179C11.9002 14.7546 10.5046 14.1678 9.02344 13.7577C7.54232 13.3475 5.99284 13.1367 4.375 13.1253C4.06738 13.1253 3.78255 13.1823 3.52051 13.2962C3.25846 13.4102 3.0306 13.564 2.83691 13.7577C2.64323 13.9514 2.48372 14.1849 2.3584 14.4584C2.23307 14.7318 2.17611 15.0166 2.1875 15.3128C2.1875 16.9193 2.39258 18.4688 2.80273 19.9613C3.21289 21.4538 3.80534 22.8438 4.58008 24.1312C5.35482 25.4186 6.26628 26.5978 7.31445 27.6688C8.36263 28.7398 9.54183 29.6569 10.8521 30.4203C12.1623 31.1836 13.5579 31.7704 15.0391 32.1805C16.5202 32.5907 18.0697 32.8014 19.6875 32.8128ZM19.0552 17.5003C20.1261 18.6966 21.0433 20.0125 21.8066 21.4481C22.57 22.8836 23.134 24.3819 23.4985 25.9427C24.4214 25.7376 25.2987 25.4243 26.1304 25.0028C26.9621 24.5812 27.7425 24.0685 28.4717 23.4647L20.7812 15.7572L19.0552 17.5003ZM30.0098 21.9095C30.9098 20.8272 31.5991 19.6309 32.0776 18.3207C32.5562 17.0104 32.8011 15.6432 32.8125 14.2191C32.8125 13.9912 32.8068 13.7691 32.7954 13.5526C32.784 13.3361 32.7612 13.1083 32.7271 12.869C32.0435 13.0399 31.3428 13.1253 30.625 13.1253C29.6452 13.1253 28.6995 12.9715 27.7881 12.6639C26.8766 12.3563 26.0335 11.8949 25.2588 11.2796L22.3193 14.2191L30.0098 21.9095Z" fill="white"/>
  </g>
  <defs>
    <clipPath id="clip0_4001_653">
      <rect width="35" height="35" fill="white"/>
    </clipPath>
  </defs>
</svg>