<svg xmlns="http://www.w3.org/2000/svg" width="37" height="37" viewBox="0 0 37 37" fill="none">
  <path d="M23.125 6.1665L32.375 9.24984V16.9582H27.75V29.2915C27.75 29.7004 27.5876 30.0925 27.2985 30.3816C27.0093 30.6707 26.6172 30.8332 26.2083 30.8332H10.7917C10.3828 30.8332 9.99066 30.6707 9.70154 30.3816C9.41243 30.0925 9.25 29.7004 9.25 29.2915V16.9582H4.625V9.24984L13.875 6.1665C13.875 7.39313 14.3623 8.56952 15.2296 9.43687C16.097 10.3042 17.2734 10.7915 18.5 10.7915C19.7266 10.7915 20.903 10.3042 21.7704 9.43687C22.6377 8.56952 23.125 7.39313 23.125 6.1665Z" stroke="white" stroke-width="2" stroke-linecap="round" stroke-linejoin="round"/>
  <path d="M16.1875 16.958H20.0417L17.7292 24.6663" stroke="white" stroke-width="2" stroke-linecap="round" stroke-linejoin="round"/>
</svg>