<svg xmlns="http://www.w3.org/2000/svg" width="94" height="94" viewBox="0 0 94 94" fill="none">
  <path d="M39.1514 30.1719C39.5645 30.1719 39.8005 29.8768 39.8891 29.4932C40.8628 24.5952 40.8037 24.4772 45.9083 23.474C46.3509 23.3855 46.6165 23.1494 46.6165 22.7363C46.6165 22.3232 46.3509 22.0872 45.9378 21.9987C40.7742 20.9365 40.8037 20.8184 39.8891 15.9499C39.83 15.5663 39.5645 15.3008 39.1514 15.3008C38.7383 15.3008 38.5023 15.5663 38.4433 15.9499C37.44 20.8774 37.5286 21.0545 32.3945 21.9987C31.9814 22.0577 31.7159 22.3232 31.7159 22.7363C31.7159 23.1199 31.9814 23.3855 32.3945 23.474C37.5286 24.5067 37.4991 24.6247 38.4433 29.4932C38.5023 29.8768 38.7383 30.1719 39.1514 30.1719ZM64.4382 40.6761C64.9103 40.6761 65.2053 40.322 65.2938 39.8794C66.3561 34.1552 66.297 33.8601 72.3163 32.8274C72.8179 32.7389 73.1425 32.4438 73.1425 31.9717C73.1425 31.4997 72.8179 31.2046 72.3458 31.1161C66.2971 30.0243 66.2085 29.7588 65.2938 24.0641C65.2053 23.592 64.9103 23.2674 64.4382 23.2674C63.9661 23.2674 63.6415 23.592 63.5825 24.0641C62.5498 29.8178 62.5793 30.1719 56.501 31.1161C56.0584 31.1751 55.7043 31.4997 55.7043 31.9717C55.7339 32.4438 56.0289 32.7389 56.501 32.8274C62.5793 33.8896 62.6383 34.1847 63.5825 39.8794C63.6415 40.322 63.9661 40.6761 64.4382 40.6761ZM22.8935 49.5279C23.3656 49.5279 23.6902 49.2033 23.7492 48.7312C24.6934 43.007 24.7819 42.712 30.8012 41.6793C31.2733 41.5907 31.5978 41.2957 31.5978 40.8236C31.5978 40.3515 31.2733 40.0564 30.8307 39.9679C24.7524 38.8762 24.7524 38.6106 23.7492 32.9159C23.6607 32.4438 23.3656 32.1193 22.8935 32.1193C22.4214 32.1193 22.1264 32.4438 22.0378 32.9159C21.0936 38.6696 21.0346 38.9647 14.9859 39.9679C14.5138 40.0564 14.1892 40.3515 14.1892 40.8236C14.1892 41.2957 14.5138 41.5907 14.9564 41.6793C21.0346 42.7415 21.0346 43.0661 22.0378 48.7607C22.1264 49.2033 22.4214 49.5279 22.8935 49.5279ZM73.408 74.8442C74.8538 76.3195 77.3323 76.29 78.7486 74.8442C80.1944 73.3394 80.1649 70.9789 78.7486 69.5036L50.7178 41.3252C49.272 39.8794 46.7935 39.8794 45.3772 41.3252C43.9314 42.83 43.9609 45.22 45.3772 46.6658L73.408 74.8442ZM37.1155 75.5818C37.7351 75.5818 38.1777 75.1687 38.2662 74.4901C39.2104 66.5234 39.594 66.2874 47.7082 65.0186C48.4458 64.9006 48.8884 64.517 48.8884 63.8679C48.8884 63.2483 48.4458 62.8352 47.8557 62.7171C39.6235 61.1238 39.2104 61.1828 38.2662 53.2457C38.1777 52.567 37.7351 52.1539 37.1155 52.1539C36.4958 52.1539 36.0533 52.567 35.9647 53.2162C34.9615 61.3008 34.6665 61.5959 26.4048 62.7171C25.8146 62.7762 25.3425 63.2483 25.3425 63.8679C25.3425 64.4875 25.7851 64.9006 26.3752 65.0186C34.696 66.612 34.932 66.612 35.9647 74.5491C36.0533 75.1687 36.4958 75.5818 37.1155 75.5818Z" fill="url(#paint0_linear_4001_732)"/>
  <defs>
    <linearGradient id="paint0_linear_4001_732" x1="47.0056" y1="15.3008" x2="47.0056" y2="75.9396" gradientUnits="userSpaceOnUse">
      <stop stop-color="#885DF1"/>
      <stop offset="1" stop-color="#6610F2"/>
    </linearGradient>
  </defs>
</svg>