<svg xmlns="http://www.w3.org/2000/svg" width="68" height="68" viewBox="0 0 68 68" fill="none">
  <path fill-rule="evenodd" clip-rule="evenodd" d="M38.8571 21.64C38.8571 25.5228 37.3219 29.2465 34.5893 31.992C31.8566 34.7376 28.1503 36.28 24.2857 36.28C20.4211 36.28 16.7148 34.7376 13.9822 31.992C11.2495 29.2465 9.71429 25.5228 9.71429 21.64C9.71429 17.7572 11.2495 14.0335 13.9822 11.288C16.7148 8.54242 20.4211 7 24.2857 7C28.1503 7 31.8566 8.54242 34.5893 11.288C37.3219 14.0335 38.8571 17.7572 38.8571 21.64ZM24.2857 41.16C17.8447 41.16 11.6676 43.7307 7.11312 48.3066C2.55867 52.8825 0 59.0887 0 65.56C0 66.2071 0.255867 66.8278 0.711312 67.2853C1.16676 67.7429 1.78447 68 2.42857 68H46.1429C46.787 68 47.4047 67.7429 47.8601 67.2853C48.3156 66.8278 48.5714 66.2071 48.5714 65.56C48.5714 59.0887 46.0128 52.8825 41.4583 48.3066C36.9039 43.7307 30.7267 41.16 24.2857 41.16ZM65.5714 68H54.2931C54.5214 67.229 54.6429 66.4091 54.6429 65.56C54.6466 60.8326 53.5548 56.1692 51.454 51.9392C49.3531 47.7092 46.3008 44.0287 42.5389 41.1893C45.8232 41.0294 49.1056 41.5412 52.1871 42.6938C55.2687 43.8464 58.0852 45.6157 60.4659 47.8944C62.8466 50.1732 64.742 52.914 66.037 55.9506C67.3321 58.9872 67.9999 62.2564 68 65.56C68 66.2071 67.7441 66.8278 67.2887 67.2853C66.8332 67.7429 66.2155 68 65.5714 68ZM43.7143 36.28C42.2863 36.2821 40.8658 36.0733 39.4983 35.6602C42.9973 31.8382 44.9359 26.8329 44.9286 21.64C44.9359 16.4471 42.9973 11.4418 39.4983 7.61976C41.5016 7.01474 43.611 6.85016 45.6832 7.13721C47.7555 7.42426 49.7419 8.15621 51.5075 9.2833C53.273 10.4104 54.7764 11.9062 55.9153 13.6691C57.0543 15.4319 57.8021 17.4205 58.1079 19.4995C58.4137 21.5786 58.2704 23.6995 57.6878 25.718C57.1051 27.7365 56.0967 29.6053 54.7311 31.1973C53.3655 32.7894 51.6747 34.0673 49.7737 34.9444C47.8728 35.8214 45.8061 36.2769 43.7143 36.28Z" fill="url(#paint0_linear_4001_720)"/>
  <defs>
    <linearGradient id="paint0_linear_4001_720" x1="34" y1="7" x2="34" y2="68" gradientUnits="userSpaceOnUse">
      <stop stop-color="#885DF1"/>
      <stop offset="1" stop-color="#6610F2"/>
    </linearGradient>
  </defs>
</svg>